<svg width="24" height="24" viewBox="0 0 24 24" fill="none" xmlns="http://www.w3.org/2000/svg">
<path fill-rule="evenodd" clip-rule="evenodd" d="M3.4378 3.47544C3.71849 3.1957 4.09897 3.03858 4.49568 3.03858C4.89239 3.03858 5.27287 3.1957 5.55356 3.47544L11.9807 9.88878L18.4078 3.47544C18.5448 3.32868 18.7101 3.21096 18.8937 3.12932C19.0774 3.04767 19.2756 3.00377 19.4766 3.00023C19.6776 2.99669 19.8773 3.03359 20.0637 3.10872C20.2501 3.18385 20.4194 3.29567 20.5615 3.43752C20.7037 3.57937 20.8158 3.74833 20.891 3.93434C20.9663 4.12034 21.0033 4.31957 20.9998 4.52014C20.9962 4.72071 20.9522 4.91852 20.8704 5.10175C20.7886 5.28499 20.6706 5.44991 20.5235 5.58666L14.0964 12L20.5235 18.4133C20.6706 18.5501 20.7886 18.715 20.8704 18.8982C20.9522 19.0815 20.9962 19.2793 20.9998 19.4799C21.0033 19.6804 20.9663 19.8797 20.891 20.0657C20.8158 20.2517 20.7037 20.4206 20.5615 20.5625C20.4194 20.7043 20.2501 20.8161 20.0637 20.8913C19.8773 20.9664 19.6776 21.0033 19.4766 20.9998C19.2756 20.9962 19.0774 20.9523 18.8937 20.8707C18.7101 20.789 18.5448 20.6713 18.4078 20.5246L11.9807 14.1112L5.55356 20.5246C5.26978 20.7884 4.89444 20.9321 4.50661 20.9252C4.11879 20.9184 3.74876 20.7616 3.47449 20.488C3.20021 20.2143 3.0431 19.845 3.03626 19.458C3.02941 19.071 3.17337 18.6965 3.4378 18.4133L9.86491 12L3.4378 5.58666C3.15746 5.30658 3 4.92691 3 4.53105C3 4.1352 3.15746 3.75553 3.4378 3.47544Z" fill="#333333"/>
</svg>
