<?xml version="1.0" standalone="no"?>
<!DOCTYPE svg PUBLIC "-//W3C//DTD SVG 20010904//EN"
 "http://www.w3.org/TR/2001/REC-SVG-20010904/DTD/svg10.dtd">
<svg version="1.0" xmlns="http://www.w3.org/2000/svg"
 width="700.000000pt" height="700.000000pt" viewBox="0 0 700.000000 700.000000"
 preserveAspectRatio="xMidYMid meet">
<metadata>
Created by potrace 1.14, written by Peter Selinger 2001-2017
</metadata>
<g transform="translate(0.000000,700.000000) scale(0.100000,-0.100000)"
fill="#000000" stroke="none">
<path d="M3299 6656 c-2 -2 -38 -7 -79 -10 -41 -3 -91 -9 -110 -12 -54 -8
-142 -23 -170 -30 -14 -3 -36 -7 -50 -10 -49 -10 -176 -47 -257 -75 -278 -98
-502 -238 -698 -434 -55 -55 -108 -110 -117 -122 -189 -242 -308 -529 -344
-833 -15 -130 -10 -352 11 -470 100 -565 516 -1050 1045 -1221 l85 -27 -45
-18 c-93 -36 -258 -127 -349 -192 -154 -109 -304 -267 -405 -425 -77 -120
-161 -317 -186 -437 -25 -117 -31 -154 -37 -230 -19 -254 9 -477 86 -687 171
-464 569 -820 1096 -980 28 -9 55 -16 60 -18 6 -1 28 -7 50 -13 55 -16 265
-52 350 -60 143 -14 534 -7 630 12 11 2 40 7 65 11 93 14 103 16 110 20 4 2
22 7 41 10 196 34 503 170 700 311 86 61 248 215 311 294 316 400 407 958 239
1460 -127 378 -423 702 -804 879 -56 27 -111 51 -122 56 -17 6 -12 10 25 20
139 38 336 138 471 240 229 173 401 394 516 660 28 65 81 239 88 290 4 22 8
47 10 55 26 90 26 383 1 530 -31 175 -94 372 -156 485 -9 17 -29 53 -44 80
-113 204 -334 427 -567 572 -214 134 -496 237 -771 282 -68 11 -139 23 -158
26 -39 7 -515 17 -521 11z m406 -751 c391 -41 717 -254 871 -571 68 -138 96
-260 99 -429 5 -208 -24 -342 -108 -510 -70 -141 -202 -293 -322 -372 -22 -14
-51 -33 -65 -42 -81 -53 -299 -132 -398 -146 -299 -39 -586 -16 -790 64 -357
141 -591 423 -656 788 -13 72 -14 307 -3 373 60 340 289 622 617 757 203 84
482 117 755 88z m29 -2851 c314 -55 557 -221 701 -479 126 -224 160 -493 100
-788 -8 -38 -48 -144 -75 -198 -140 -275 -432 -461 -775 -495 -163 -17 -379
-7 -505 22 -471 108 -755 475 -744 962 10 499 320 875 799 971 114 23 384 26
499 5z"/>
</g>
</svg>
